# xmcd CD database file
#
# Track frame offsets:
#	150
#	27117
#	45646
#	67599
#	90408
#	109264
#	135375
#	164843
#	188462
#	209564
#	233295
#	261466
#	279852
#	309953
#	338348
#
# Disc length: 4740 seconds
#
# Revision: 4
# Processed by: cddbd v1.5.2PL0 Copyright (c) Steve Scherf et al.
# Submitted via: CDex 1.51
#
DISCID=ba12820f
DTITLE=Henning Mankell - Die fünfte Frau 3
DYEAR=2005
DGENRE=Hörbuch
TTITLE0=32-Die fünfte Frau 3
TTITLE1=33-Die fünfte Frau 3
TTITLE2=34-Die fünfte Frau 3
TTITLE3=35-Die fünfte Frau 3
TTITLE4=36-Die fünfte Frau 3
TTITLE5=37-Die fünfte Frau 3
TTITLE6=38-Die fünfte Frau 3
TTITLE7=39-Die fünfte Frau 3
TTITLE8=40-Die fünfte Frau 3
TTITLE9=41-Die fünfte Frau 3
TTITLE10=42-Die fünfte Frau 3
TTITLE11=43-Die fünfte Frau 3
TTITLE12=44-Die fünfte Frau 3
TTITLE13=45-Die fünfte Frau 3
TTITLE14=46-Die fünfte Frau 3
EXTD=YEAR: 2005
EXTT0=
EXTT1=
EXTT2=
EXTT3=
EXTT4=
EXTT5=
EXTT6=
EXTT7=
EXTT8=
EXTT9=
EXTT10=
EXTT11=
EXTT12=
EXTT13=
EXTT14=
PLAYORDER=
